<mxfile host="Electron" modified="2023-09-12T13:49:07.976Z" agent="Mozilla/5.0 (Macintosh; Intel Mac OS X 10_15_7) AppleWebKit/537.36 (KHTML, like Gecko) draw.io/21.6.1 Chrome/112.0.5615.204 Electron/24.6.1 Safari/537.36" etag="jps0ENUjgvkMyfTsnGu-" version="21.6.1" type="device" pages="2">
  <diagram id="GyyvgpNQD2YScgq6EcZ8" name="架构图">
    <mxGraphModel dx="2541" dy="2483" grid="1" gridSize="10" guides="1" tooltips="1" connect="1" arrows="1" fold="1" page="1" pageScale="1" pageWidth="827" pageHeight="1169" math="0" shadow="0">
      <root>
        <mxCell id="0" />
        <mxCell id="1" parent="0" />
        <mxCell id="JIFR-orrSNVKGbnrF8LJ-5" value="" style="endArrow=none;dashed=1;html=1;fontSize=20;comic=0;fontFamily=Helvetica;" parent="1" edge="1">
          <mxGeometry width="50" height="50" relative="1" as="geometry">
            <mxPoint x="-728.5" y="-330" as="sourcePoint" />
            <mxPoint x="672.5" y="-330" as="targetPoint" />
          </mxGeometry>
        </mxCell>
        <mxCell id="OnMQXUsQuM_lED_xJwlF-19" value="" style="endArrow=none;dashed=1;html=1;fontSize=20;strokeColor=#f79824;strokeWidth=2;rounded=0;opacity=50;fontFamily=Helvetica;" parent="1" edge="1">
          <mxGeometry width="50" height="50" relative="1" as="geometry">
            <mxPoint x="112.37" y="-1168" as="sourcePoint" />
            <mxPoint x="112" y="410" as="targetPoint" />
          </mxGeometry>
        </mxCell>
        <mxCell id="OnMQXUsQuM_lED_xJwlF-27" value="" style="rounded=0;whiteSpace=wrap;html=1;fillColor=#78a798;fontSize=20;strokeColor=none;comic=0;fontColor=#333333;fontFamily=Helvetica;" parent="1" vertex="1">
          <mxGeometry x="-522" y="-89" width="1100" height="50" as="geometry" />
        </mxCell>
        <mxCell id="OnMQXUsQuM_lED_xJwlF-23" value="" style="rounded=0;whiteSpace=wrap;html=1;fillColor=#8cc0b2;fontSize=20;strokeColor=none;comic=0;fontColor=#333333;fontFamily=Helvetica;" parent="1" vertex="1">
          <mxGeometry x="-522" y="-282.5" width="1100" height="95" as="geometry" />
        </mxCell>
        <mxCell id="nY-FzgrsEUIEL5FHPldE-1" value="" style="rounded=0;whiteSpace=wrap;html=1;fillColor=#d6e5e3;fontSize=20;strokeColor=none;fillStyle=auto;fontFamily=Helvetica;" parent="1" vertex="1">
          <mxGeometry x="-522" y="-740" width="1100" height="100" as="geometry" />
        </mxCell>
        <mxCell id="nY-FzgrsEUIEL5FHPldE-2" value="" style="rounded=0;whiteSpace=wrap;html=1;fillColor=#bbdfd7;fontSize=20;strokeColor=none;fontFamily=Helvetica;" parent="1" vertex="1">
          <mxGeometry x="-522" y="-590" width="1100" height="100" as="geometry" />
        </mxCell>
        <mxCell id="nY-FzgrsEUIEL5FHPldE-3" value="" style="rounded=0;whiteSpace=wrap;html=1;fillColor=#9fd8cb;fontSize=20;strokeColor=none;comic=0;fontFamily=Helvetica;" parent="1" vertex="1">
          <mxGeometry x="-522" y="-445" width="1100" height="95" as="geometry" />
        </mxCell>
        <mxCell id="nY-FzgrsEUIEL5FHPldE-5" value="浏览器" style="rounded=0;whiteSpace=wrap;html=1;fontSize=20;strokeColor=#31393c;fontFamily=Helvetica;" parent="1" vertex="1">
          <mxGeometry x="-472" y="-720" width="1020" height="60" as="geometry" />
        </mxCell>
        <mxCell id="nY-FzgrsEUIEL5FHPldE-6" value="请求代理层" style="rounded=0;whiteSpace=wrap;html=1;fontSize=20;strokeColor=#31393c;fontFamily=Helvetica;" parent="1" vertex="1">
          <mxGeometry x="-472" y="-570" width="1020" height="60" as="geometry" />
        </mxCell>
        <mxCell id="nY-FzgrsEUIEL5FHPldE-11" value="平台" style="rounded=0;whiteSpace=wrap;html=1;fontSize=18;strokeColor=#31393c;fontFamily=Helvetica;" parent="1" vertex="1">
          <mxGeometry x="-292" y="-427.5" width="120" height="60" as="geometry" />
        </mxCell>
        <mxCell id="nY-FzgrsEUIEL5FHPldE-12" value="" style="edgeStyle=orthogonalEdgeStyle;rounded=0;orthogonalLoop=1;jettySize=auto;html=1;endArrow=none;endFill=0;fontFamily=Helvetica;" parent="1" source="nY-FzgrsEUIEL5FHPldE-13" target="nY-FzgrsEUIEL5FHPldE-17" edge="1">
          <mxGeometry relative="1" as="geometry">
            <mxPoint x="-377" y="-17" as="targetPoint" />
          </mxGeometry>
        </mxCell>
        <mxCell id="nY-FzgrsEUIEL5FHPldE-13" value="Portal 1.0.0" style="rounded=0;whiteSpace=wrap;html=1;verticalAlign=top;strokeColor=#313937;fontSize=14;fontFamily=Helvetica;" parent="1" vertex="1">
          <mxGeometry x="-482" y="53" width="210" height="100" as="geometry" />
        </mxCell>
        <mxCell id="nY-FzgrsEUIEL5FHPldE-14" value="" style="html=1;dashed=0;whitespace=wrap;fillColor=#2875E2;strokeColor=#ffffff;points=[[0.005,0.63,0],[0.1,0.2,0],[0.9,0.2,0],[0.5,0,0],[0.995,0.63,0],[0.72,0.99,0],[0.5,1,0],[0.28,0.99,0]];shape=mxgraph.kubernetes.icon;prIcon=pod;fontFamily=Helvetica;" parent="1" vertex="1">
          <mxGeometry x="-472" y="93" width="50" height="48" as="geometry" />
        </mxCell>
        <mxCell id="nY-FzgrsEUIEL5FHPldE-15" value="" style="html=1;dashed=0;whitespace=wrap;fillColor=#2875E2;strokeColor=#ffffff;points=[[0.005,0.63,0],[0.1,0.2,0],[0.9,0.2,0],[0.5,0,0],[0.995,0.63,0],[0.72,0.99,0],[0.5,1,0],[0.28,0.99,0]];shape=mxgraph.kubernetes.icon;prIcon=svc;fontFamily=Helvetica;" parent="1" vertex="1">
          <mxGeometry x="-332" y="93" width="50" height="48" as="geometry" />
        </mxCell>
        <mxCell id="nY-FzgrsEUIEL5FHPldE-16" value="" style="html=1;dashed=0;whitespace=wrap;fillColor=#2875E2;strokeColor=#ffffff;points=[[0.005,0.63,0],[0.1,0.2,0],[0.9,0.2,0],[0.5,0,0],[0.995,0.63,0],[0.72,0.99,0],[0.5,1,0],[0.28,0.99,0]];shape=mxgraph.kubernetes.icon;prIcon=cm;fontFamily=Helvetica;" parent="1" vertex="1">
          <mxGeometry x="-402" y="93" width="50" height="48" as="geometry" />
        </mxCell>
        <mxCell id="nY-FzgrsEUIEL5FHPldE-17" value="" style="ellipse;whiteSpace=wrap;html=1;aspect=fixed;fontFamily=Helvetica;" parent="1" vertex="1">
          <mxGeometry x="-387" y="-71.5" width="20" height="20" as="geometry" />
        </mxCell>
        <mxCell id="nY-FzgrsEUIEL5FHPldE-18" value="" style="edgeStyle=orthogonalEdgeStyle;rounded=0;orthogonalLoop=1;jettySize=auto;html=1;endArrow=none;endFill=0;fontFamily=Helvetica;" parent="1" source="nY-FzgrsEUIEL5FHPldE-19" target="nY-FzgrsEUIEL5FHPldE-23" edge="1">
          <mxGeometry relative="1" as="geometry">
            <mxPoint x="-118" y="-17" as="targetPoint" />
          </mxGeometry>
        </mxCell>
        <mxCell id="nY-FzgrsEUIEL5FHPldE-19" value="Control 1.0.0" style="rounded=0;whiteSpace=wrap;html=1;verticalAlign=middle;strokeColor=#313937;fontSize=14;fontFamily=Helvetica;" parent="1" vertex="1">
          <mxGeometry x="-240" y="53" width="84" height="60" as="geometry" />
        </mxCell>
        <mxCell id="nY-FzgrsEUIEL5FHPldE-23" value="" style="ellipse;whiteSpace=wrap;html=1;aspect=fixed;fontFamily=Helvetica;" parent="1" vertex="1">
          <mxGeometry x="-208" y="-71.5" width="20" height="20" as="geometry" />
        </mxCell>
        <mxCell id="nY-FzgrsEUIEL5FHPldE-24" value="" style="edgeStyle=orthogonalEdgeStyle;rounded=0;orthogonalLoop=1;jettySize=auto;html=1;endArrow=none;endFill=0;fontFamily=Helvetica;" parent="1" source="nY-FzgrsEUIEL5FHPldE-25" target="nY-FzgrsEUIEL5FHPldE-29" edge="1">
          <mxGeometry relative="1" as="geometry">
            <mxPoint x="-13" y="-17" as="targetPoint" />
          </mxGeometry>
        </mxCell>
        <mxCell id="nY-FzgrsEUIEL5FHPldE-25" value="Cert 1.0.0" style="rounded=0;whiteSpace=wrap;html=1;verticalAlign=middle;strokeColor=#313937;fontSize=14;fontFamily=Helvetica;" parent="1" vertex="1">
          <mxGeometry x="-126" y="53" width="84" height="60" as="geometry" />
        </mxCell>
        <mxCell id="nY-FzgrsEUIEL5FHPldE-29" value="" style="ellipse;whiteSpace=wrap;html=1;aspect=fixed;fontFamily=Helvetica;" parent="1" vertex="1">
          <mxGeometry x="-94" y="-71.5" width="20" height="20" as="geometry" />
        </mxCell>
        <mxCell id="nY-FzgrsEUIEL5FHPldE-30" value="" style="edgeStyle=orthogonalEdgeStyle;rounded=0;orthogonalLoop=1;jettySize=auto;html=1;endArrow=none;endFill=0;fontFamily=Helvetica;" parent="1" source="nY-FzgrsEUIEL5FHPldE-31" target="nY-FzgrsEUIEL5FHPldE-35" edge="1">
          <mxGeometry relative="1" as="geometry">
            <mxPoint x="103" y="-17" as="targetPoint" />
          </mxGeometry>
        </mxCell>
        <mxCell id="nY-FzgrsEUIEL5FHPldE-31" value="App 1.0.0" style="rounded=0;whiteSpace=wrap;html=1;verticalAlign=middle;strokeColor=#313937;fontSize=14;fontFamily=Helvetica;" parent="1" vertex="1">
          <mxGeometry x="-8" y="53" width="84" height="60" as="geometry" />
        </mxCell>
        <mxCell id="nY-FzgrsEUIEL5FHPldE-35" value="" style="ellipse;whiteSpace=wrap;html=1;aspect=fixed;fontFamily=Helvetica;" parent="1" vertex="1">
          <mxGeometry x="24" y="-71.5" width="20" height="20" as="geometry" />
        </mxCell>
        <mxCell id="nY-FzgrsEUIEL5FHPldE-40" value="产品" style="text;html=1;align=center;verticalAlign=middle;resizable=0;points=[];autosize=1;fontSize=20;fontStyle=1;fontColor=#2E282A;fontFamily=Helvetica;" parent="1" vertex="1">
          <mxGeometry x="-662" y="-420" width="60" height="40" as="geometry" />
        </mxCell>
        <mxCell id="nY-FzgrsEUIEL5FHPldE-41" value="" style="endArrow=none;dashed=1;html=1;fontSize=20;fontFamily=Helvetica;" parent="1" edge="1">
          <mxGeometry width="50" height="50" relative="1" as="geometry">
            <mxPoint x="-722" y="-617" as="sourcePoint" />
            <mxPoint x="679" y="-617" as="targetPoint" />
          </mxGeometry>
        </mxCell>
        <mxCell id="nY-FzgrsEUIEL5FHPldE-42" value="请求层" style="text;html=1;align=center;verticalAlign=middle;resizable=0;points=[];autosize=1;fontSize=20;fontStyle=1;fontColor=#2E282A;fontFamily=Helvetica;" parent="1" vertex="1">
          <mxGeometry x="-672" y="-560" width="80" height="40" as="geometry" />
        </mxCell>
        <mxCell id="nY-FzgrsEUIEL5FHPldE-43" value="用户请求" style="text;html=1;align=center;verticalAlign=middle;resizable=0;points=[];autosize=1;fontSize=20;fontStyle=1;fontColor=#2E282A;fontFamily=Helvetica;" parent="1" vertex="1">
          <mxGeometry x="-682" y="-710" width="100" height="40" as="geometry" />
        </mxCell>
        <mxCell id="nY-FzgrsEUIEL5FHPldE-44" value="" style="endArrow=none;dashed=1;html=1;fontSize=20;comic=0;fontFamily=Helvetica;" parent="1" edge="1">
          <mxGeometry width="50" height="50" relative="1" as="geometry">
            <mxPoint x="-727.4999999999998" y="-470.0000000000002" as="sourcePoint" />
            <mxPoint x="673.5" y="-470.0000000000002" as="targetPoint" />
          </mxGeometry>
        </mxCell>
        <mxCell id="nY-FzgrsEUIEL5FHPldE-45" value="前端应用" style="text;html=1;align=center;verticalAlign=middle;resizable=0;points=[];autosize=1;fontSize=18;fontStyle=0;fontFamily=Helvetica;" parent="1" vertex="1">
          <mxGeometry x="-652" y="83" width="100" height="40" as="geometry" />
        </mxCell>
        <mxCell id="nY-FzgrsEUIEL5FHPldE-46" value="" style="endArrow=none;dashed=1;html=1;fontSize=20;comic=0;fontFamily=Helvetica;" parent="1" edge="1">
          <mxGeometry width="50" height="50" relative="1" as="geometry">
            <mxPoint x="-727.4999999999998" y="13" as="sourcePoint" />
            <mxPoint x="673.5" y="13" as="targetPoint" />
          </mxGeometry>
        </mxCell>
        <mxCell id="nY-FzgrsEUIEL5FHPldE-47" value="后端&lt;br style=&quot;font-size: 18px;&quot;&gt;微服务群" style="text;html=1;align=center;verticalAlign=middle;resizable=0;points=[];autosize=1;fontSize=18;fontStyle=0;fontFamily=Helvetica;" parent="1" vertex="1">
          <mxGeometry x="-652" y="288" width="100" height="60" as="geometry" />
        </mxCell>
        <mxCell id="nY-FzgrsEUIEL5FHPldE-48" value="Micro Service" style="rounded=1;whiteSpace=wrap;html=1;comic=0;fillColor=#313937;fontSize=16;strokeColor=none;fontColor=#fffffb;fontFamily=Helvetica;" parent="1" vertex="1">
          <mxGeometry x="-522" y="243" width="160" height="60" as="geometry" />
        </mxCell>
        <mxCell id="nY-FzgrsEUIEL5FHPldE-49" value="Micro Service" style="rounded=1;whiteSpace=wrap;html=1;comic=0;fillColor=#313937;fontSize=16;strokeColor=none;fontColor=#fffffb;fontFamily=Helvetica;" parent="1" vertex="1">
          <mxGeometry x="-304" y="243" width="160" height="60" as="geometry" />
        </mxCell>
        <mxCell id="nY-FzgrsEUIEL5FHPldE-52" value="Micro Service" style="rounded=1;whiteSpace=wrap;html=1;comic=0;fillColor=#313937;fontSize=16;strokeColor=none;fontColor=#fffffb;fontFamily=Helvetica;" parent="1" vertex="1">
          <mxGeometry x="-87" y="243" width="160" height="60" as="geometry" />
        </mxCell>
        <mxCell id="nY-FzgrsEUIEL5FHPldE-53" value="Micro Service" style="rounded=1;whiteSpace=wrap;html=1;comic=0;fillColor=#313937;fontSize=16;strokeColor=none;fontColor=#fffffb;fontFamily=Helvetica;" parent="1" vertex="1">
          <mxGeometry x="-522" y="352" width="160" height="60" as="geometry" />
        </mxCell>
        <mxCell id="nY-FzgrsEUIEL5FHPldE-54" value="Micro Service" style="rounded=1;whiteSpace=wrap;html=1;comic=0;fillColor=#313937;fontSize=16;strokeColor=none;fontColor=#fffffb;fontFamily=Helvetica;" parent="1" vertex="1">
          <mxGeometry x="-305" y="352" width="160" height="60" as="geometry" />
        </mxCell>
        <mxCell id="nY-FzgrsEUIEL5FHPldE-57" value="Micro Service" style="rounded=1;whiteSpace=wrap;html=1;comic=0;fillColor=#313937;fontSize=16;strokeColor=none;fontColor=#fffffb;fontFamily=Helvetica;" parent="1" vertex="1">
          <mxGeometry x="-88" y="352" width="160" height="60" as="geometry" />
        </mxCell>
        <mxCell id="nY-FzgrsEUIEL5FHPldE-58" value="Docker 集群" style="text;html=1;align=center;verticalAlign=middle;resizable=0;points=[];autosize=1;fontSize=20;fontStyle=1;fontColor=#2E282A;fontFamily=Helvetica;" parent="1" vertex="1">
          <mxGeometry x="-702" y="178" width="140" height="40" as="geometry" />
        </mxCell>
        <mxCell id="OnMQXUsQuM_lED_xJwlF-11" value="稳定客户" style="swimlane;fontSize=18;startSize=23;fillColor=none;strokeColor=none;fillStyle=auto;swimlaneFillColor=none;fontFamily=Helvetica;" parent="1" vertex="1">
          <mxGeometry x="-397" y="-1134" width="365" height="270" as="geometry" />
        </mxCell>
        <mxCell id="OnMQXUsQuM_lED_xJwlF-5" value="客户 B" style="points=[[0.35,0,0],[0.98,0.51,0],[1,0.71,0],[0.67,1,0],[0,0.795,0],[0,0.65,0]];verticalLabelPosition=bottom;sketch=0;html=1;verticalAlign=top;aspect=fixed;align=center;pointerEvents=1;shape=mxgraph.cisco19.user;fillColor=#2e282a;strokeColor=#005700;fontSize=16;fontColor=#000000;swimlaneFillColor=#2e282a;fontFamily=Helvetica;" parent="OnMQXUsQuM_lED_xJwlF-11" vertex="1">
          <mxGeometry x="212.5" y="50" width="60" height="60" as="geometry" />
        </mxCell>
        <mxCell id="OnMQXUsQuM_lED_xJwlF-7" value="客户 A" style="points=[[0.35,0,0],[0.98,0.51,0],[1,0.71,0],[0.67,1,0],[0,0.795,0],[0,0.65,0]];verticalLabelPosition=bottom;sketch=0;html=1;verticalAlign=top;aspect=fixed;align=center;pointerEvents=1;shape=mxgraph.cisco19.user;fillColor=#2e282a;strokeColor=#005700;fontSize=16;fontColor=#000000;swimlaneFillColor=#2e282a;fontFamily=Helvetica;" parent="OnMQXUsQuM_lED_xJwlF-11" vertex="1">
          <mxGeometry x="92.5" y="50" width="60" height="60" as="geometry" />
        </mxCell>
        <mxCell id="OnMQXUsQuM_lED_xJwlF-8" value="....." style="points=[[0.35,0,0],[0.98,0.51,0],[1,0.71,0],[0.67,1,0],[0,0.795,0],[0,0.65,0]];verticalLabelPosition=bottom;sketch=0;html=1;verticalAlign=top;aspect=fixed;align=center;pointerEvents=1;shape=mxgraph.cisco19.user;fillColor=#2e282a;strokeColor=#005700;fontSize=16;fontColor=#000000;swimlaneFillColor=#2e282a;fontFamily=Helvetica;" parent="OnMQXUsQuM_lED_xJwlF-11" vertex="1">
          <mxGeometry x="212.5" y="160" width="60" height="60" as="geometry" />
        </mxCell>
        <mxCell id="OnMQXUsQuM_lED_xJwlF-9" value="客户 C" style="points=[[0.35,0,0],[0.98,0.51,0],[1,0.71,0],[0.67,1,0],[0,0.795,0],[0,0.65,0]];verticalLabelPosition=bottom;sketch=0;html=1;verticalAlign=top;aspect=fixed;align=center;pointerEvents=1;shape=mxgraph.cisco19.user;fillColor=#2e282a;strokeColor=#005700;fontSize=16;fontColor=#000000;swimlaneFillColor=#2e282a;fontFamily=Helvetica;" parent="OnMQXUsQuM_lED_xJwlF-11" vertex="1">
          <mxGeometry x="92.5" y="160" width="60" height="60" as="geometry" />
        </mxCell>
        <mxCell id="OnMQXUsQuM_lED_xJwlF-12" value="" style="shape=flexArrow;endArrow=classic;html=1;rounded=0;fontSize=16;strokeColor=#2E282A;strokeWidth=2;fontFamily=Helvetica;" parent="1" edge="1">
          <mxGeometry width="50" height="50" relative="1" as="geometry">
            <mxPoint x="-215.09" y="-844" as="sourcePoint" />
            <mxPoint x="-215.09" y="-754" as="targetPoint" />
          </mxGeometry>
        </mxCell>
        <mxCell id="OnMQXUsQuM_lED_xJwlF-45" value="携带 cookie: appMode=stable" style="edgeLabel;html=1;align=center;verticalAlign=middle;resizable=0;points=[];fontSize=18;fontColor=#000000;fontFamily=Helvetica;" parent="OnMQXUsQuM_lED_xJwlF-12" vertex="1" connectable="0">
          <mxGeometry x="-0.3556" y="1" relative="1" as="geometry">
            <mxPoint as="offset" />
          </mxGeometry>
        </mxCell>
        <mxCell id="OnMQXUsQuM_lED_xJwlF-13" value="抢先体验客户" style="swimlane;fontSize=18;startSize=23;fillColor=none;strokeColor=none;fillStyle=hatch;swimlaneFillColor=none;sketch=0;fontFamily=Helvetica;" parent="1" vertex="1">
          <mxGeometry x="213" y="-1134" width="365" height="270" as="geometry">
            <mxRectangle x="213" y="-1134" width="150" height="40" as="alternateBounds" />
          </mxGeometry>
        </mxCell>
        <mxCell id="OnMQXUsQuM_lED_xJwlF-14" value="灰度客户 B" style="points=[[0.35,0,0],[0.98,0.51,0],[1,0.71,0],[0.67,1,0],[0,0.795,0],[0,0.65,0]];verticalLabelPosition=bottom;sketch=0;html=1;verticalAlign=top;aspect=fixed;align=center;pointerEvents=1;shape=mxgraph.cisco19.user;fillColor=#777DA7;strokeColor=#001DBC;fontSize=16;fontColor=#000000;swimlaneFillColor=#777DA7;fontFamily=Helvetica;" parent="OnMQXUsQuM_lED_xJwlF-13" vertex="1">
          <mxGeometry x="212.5" y="50" width="60" height="60" as="geometry" />
        </mxCell>
        <mxCell id="OnMQXUsQuM_lED_xJwlF-15" value="灰度客户 A" style="points=[[0.35,0,0],[0.98,0.51,0],[1,0.71,0],[0.67,1,0],[0,0.795,0],[0,0.65,0]];verticalLabelPosition=bottom;sketch=0;html=1;verticalAlign=top;aspect=fixed;align=center;pointerEvents=1;shape=mxgraph.cisco19.user;fillColor=#777DA7;strokeColor=#001DBC;fontSize=16;fontColor=#000000;swimlaneFillColor=#777DA7;fontFamily=Helvetica;" parent="OnMQXUsQuM_lED_xJwlF-13" vertex="1">
          <mxGeometry x="92.5" y="50" width="60" height="60" as="geometry" />
        </mxCell>
        <mxCell id="OnMQXUsQuM_lED_xJwlF-16" value="....." style="points=[[0.35,0,0],[0.98,0.51,0],[1,0.71,0],[0.67,1,0],[0,0.795,0],[0,0.65,0]];verticalLabelPosition=bottom;sketch=0;html=1;verticalAlign=top;aspect=fixed;align=center;pointerEvents=1;shape=mxgraph.cisco19.user;fillColor=#777DA7;strokeColor=#001DBC;fontSize=16;fontColor=#000000;swimlaneFillColor=#777DA7;fontFamily=Helvetica;" parent="OnMQXUsQuM_lED_xJwlF-13" vertex="1">
          <mxGeometry x="212.5" y="160" width="60" height="60" as="geometry" />
        </mxCell>
        <mxCell id="OnMQXUsQuM_lED_xJwlF-17" value="灰度客户 C" style="points=[[0.35,0,0],[0.98,0.51,0],[1,0.71,0],[0.67,1,0],[0,0.795,0],[0,0.65,0]];verticalLabelPosition=bottom;sketch=0;html=1;verticalAlign=top;aspect=fixed;align=center;pointerEvents=1;shape=mxgraph.cisco19.user;fillColor=#777DA7;strokeColor=#001DBC;fontSize=16;fontColor=#000000;swimlaneFillColor=#777DA7;fontFamily=Helvetica;" parent="OnMQXUsQuM_lED_xJwlF-13" vertex="1">
          <mxGeometry x="92.5" y="160" width="60" height="60" as="geometry" />
        </mxCell>
        <mxCell id="OnMQXUsQuM_lED_xJwlF-18" value="" style="shape=flexArrow;endArrow=classic;html=1;rounded=0;fontSize=16;strokeColor=#777DA7;sketch=0;strokeWidth=2;fontFamily=Helvetica;" parent="1" edge="1">
          <mxGeometry width="50" height="50" relative="1" as="geometry">
            <mxPoint x="395" y="-844" as="sourcePoint" />
            <mxPoint x="395" y="-754" as="targetPoint" />
          </mxGeometry>
        </mxCell>
        <mxCell id="OnMQXUsQuM_lED_xJwlF-46" value="携带 cookie: appMode=gray" style="edgeLabel;html=1;align=center;verticalAlign=middle;resizable=0;points=[];fontSize=16;fontColor=#000000;fontFamily=Helvetica;" parent="OnMQXUsQuM_lED_xJwlF-18" vertex="1" connectable="0">
          <mxGeometry x="-0.3278" y="-4" relative="1" as="geometry">
            <mxPoint as="offset" />
          </mxGeometry>
        </mxCell>
        <mxCell id="OnMQXUsQuM_lED_xJwlF-50" value="携带 cookie: appMode=gray" style="edgeLabel;html=1;align=center;verticalAlign=middle;resizable=0;points=[];fontSize=16;fontColor=#000000;fontFamily=Helvetica;" parent="OnMQXUsQuM_lED_xJwlF-18" vertex="1" connectable="0">
          <mxGeometry x="-0.3278" y="-4" relative="1" as="geometry">
            <mxPoint x="1" as="offset" />
          </mxGeometry>
        </mxCell>
        <mxCell id="OnMQXUsQuM_lED_xJwlF-51" value="携带 cookie: appMode=gray" style="edgeLabel;html=1;align=center;verticalAlign=middle;resizable=0;points=[];fontSize=16;fontColor=#000000;fontFamily=Helvetica;" parent="OnMQXUsQuM_lED_xJwlF-18" vertex="1" connectable="0">
          <mxGeometry x="-0.3278" y="-4" relative="1" as="geometry">
            <mxPoint x="1" as="offset" />
          </mxGeometry>
        </mxCell>
        <mxCell id="OnMQXUsQuM_lED_xJwlF-52" value="携带 cookie: appMode=canary" style="edgeLabel;html=1;align=center;verticalAlign=middle;resizable=0;points=[];fontSize=18;fontColor=#000000;fontFamily=Helvetica;" parent="OnMQXUsQuM_lED_xJwlF-18" vertex="1" connectable="0">
          <mxGeometry x="-0.3278" y="-4" relative="1" as="geometry">
            <mxPoint x="1" as="offset" />
          </mxGeometry>
        </mxCell>
        <mxCell id="OnMQXUsQuM_lED_xJwlF-22" value="流量网关" style="text;html=1;align=center;verticalAlign=middle;resizable=0;points=[];autosize=1;fontSize=20;fontStyle=1;fontColor=#2E282A;fontFamily=Helvetica;" parent="1" vertex="1">
          <mxGeometry x="-682" y="-255" width="100" height="40" as="geometry" />
        </mxCell>
        <mxCell id="OnMQXUsQuM_lED_xJwlF-25" value="istio-gateway 流量染色" style="rounded=0;whiteSpace=wrap;html=1;fontSize=20;strokeColor=#31393c;fontFamily=Helvetica;" parent="1" vertex="1">
          <mxGeometry x="-472" y="-265" width="1020" height="60" as="geometry" />
        </mxCell>
        <mxCell id="OnMQXUsQuM_lED_xJwlF-26" value="" style="endArrow=none;dashed=1;html=1;fontSize=20;comic=0;fontFamily=Helvetica;" parent="1" edge="1">
          <mxGeometry width="50" height="50" relative="1" as="geometry">
            <mxPoint x="-727.4999999999998" y="-139" as="sourcePoint" />
            <mxPoint x="673.5" y="-139" as="targetPoint" />
          </mxGeometry>
        </mxCell>
        <mxCell id="OnMQXUsQuM_lED_xJwlF-28" value="Nginx" style="text;html=1;align=center;verticalAlign=middle;resizable=0;points=[];autosize=1;fontSize=20;fontStyle=1;fontColor=#2E282A;fontFamily=Helvetica;" parent="1" vertex="1">
          <mxGeometry x="-672" y="-84" width="80" height="40" as="geometry" />
        </mxCell>
        <mxCell id="OnMQXUsQuM_lED_xJwlF-29" value="" style="edgeStyle=orthogonalEdgeStyle;rounded=0;orthogonalLoop=1;jettySize=auto;html=1;endArrow=none;endFill=0;fontFamily=Helvetica;" parent="1" source="OnMQXUsQuM_lED_xJwlF-30" target="OnMQXUsQuM_lED_xJwlF-34" edge="1">
          <mxGeometry relative="1" as="geometry">
            <mxPoint x="265" y="-17" as="targetPoint" />
          </mxGeometry>
        </mxCell>
        <mxCell id="OnMQXUsQuM_lED_xJwlF-30" value="Cert 1.0.1" style="rounded=0;whiteSpace=wrap;html=1;verticalAlign=top;strokeColor=#777DA7;fontSize=14;fontFamily=Helvetica;" parent="1" vertex="1">
          <mxGeometry x="160" y="53" width="210" height="100" as="geometry" />
        </mxCell>
        <mxCell id="OnMQXUsQuM_lED_xJwlF-31" value="" style="html=1;dashed=0;whitespace=wrap;fillColor=#2875E2;strokeColor=#ffffff;points=[[0.005,0.63,0],[0.1,0.2,0],[0.9,0.2,0],[0.5,0,0],[0.995,0.63,0],[0.72,0.99,0],[0.5,1,0],[0.28,0.99,0]];shape=mxgraph.kubernetes.icon;prIcon=pod;fontFamily=Helvetica;" parent="1" vertex="1">
          <mxGeometry x="170" y="93" width="50" height="48" as="geometry" />
        </mxCell>
        <mxCell id="OnMQXUsQuM_lED_xJwlF-32" value="" style="html=1;dashed=0;whitespace=wrap;fillColor=#2875E2;strokeColor=#ffffff;points=[[0.005,0.63,0],[0.1,0.2,0],[0.9,0.2,0],[0.5,0,0],[0.995,0.63,0],[0.72,0.99,0],[0.5,1,0],[0.28,0.99,0]];shape=mxgraph.kubernetes.icon;prIcon=svc;fontFamily=Helvetica;" parent="1" vertex="1">
          <mxGeometry x="310" y="93" width="50" height="48" as="geometry" />
        </mxCell>
        <mxCell id="OnMQXUsQuM_lED_xJwlF-33" value="" style="html=1;dashed=0;whitespace=wrap;fillColor=#2875E2;strokeColor=#ffffff;points=[[0.005,0.63,0],[0.1,0.2,0],[0.9,0.2,0],[0.5,0,0],[0.995,0.63,0],[0.72,0.99,0],[0.5,1,0],[0.28,0.99,0]];shape=mxgraph.kubernetes.icon;prIcon=cm;fontFamily=Helvetica;" parent="1" vertex="1">
          <mxGeometry x="240" y="93" width="50" height="48" as="geometry" />
        </mxCell>
        <mxCell id="OnMQXUsQuM_lED_xJwlF-34" value="" style="ellipse;whiteSpace=wrap;html=1;aspect=fixed;fontFamily=Helvetica;" parent="1" vertex="1">
          <mxGeometry x="255" y="-71.5" width="20" height="20" as="geometry" />
        </mxCell>
        <mxCell id="OnMQXUsQuM_lED_xJwlF-35" value="" style="edgeStyle=orthogonalEdgeStyle;rounded=0;orthogonalLoop=1;jettySize=auto;html=1;endArrow=none;endFill=0;fontFamily=Helvetica;" parent="1" source="UNmhw7URokJWCJeyuWq6-1" target="OnMQXUsQuM_lED_xJwlF-37" edge="1">
          <mxGeometry relative="1" as="geometry">
            <mxPoint x="562" y="-17" as="targetPoint" />
            <mxPoint x="488" y="113" as="sourcePoint" />
          </mxGeometry>
        </mxCell>
        <mxCell id="OnMQXUsQuM_lED_xJwlF-37" value="" style="ellipse;whiteSpace=wrap;html=1;aspect=fixed;fontFamily=Helvetica;" parent="1" vertex="1">
          <mxGeometry x="472" y="-71.5" width="20" height="20" as="geometry" />
        </mxCell>
        <mxCell id="nY-FzgrsEUIEL5FHPldE-7" value="100%" style="rounded=0;orthogonalLoop=1;jettySize=auto;html=1;entryX=0.5;entryY=0;entryDx=0;entryDy=0;endArrow=none;endFill=0;exitX=0.5;exitY=1;exitDx=0;exitDy=0;strokeColor=#2E282A;strokeWidth=2;fontSize=20;fontFamily=Helvetica;" parent="1" source="nY-FzgrsEUIEL5FHPldE-11" target="nY-FzgrsEUIEL5FHPldE-17" edge="1">
          <mxGeometry relative="1" as="geometry" />
        </mxCell>
        <mxCell id="nY-FzgrsEUIEL5FHPldE-9" value="90%" style="rounded=0;orthogonalLoop=1;jettySize=auto;html=1;entryX=0.5;entryY=0;entryDx=0;entryDy=0;endArrow=none;endFill=0;exitX=0.5;exitY=1;exitDx=0;exitDy=0;strokeColor=#2E282A;dashed=1;strokeWidth=2;fontSize=20;fontFamily=Helvetica;" parent="1" source="nY-FzgrsEUIEL5FHPldE-11" target="nY-FzgrsEUIEL5FHPldE-29" edge="1">
          <mxGeometry relative="1" as="geometry">
            <mxPoint x="-232" y="-370" as="sourcePoint" />
          </mxGeometry>
        </mxCell>
        <mxCell id="nY-FzgrsEUIEL5FHPldE-10" value="90%" style="edgeStyle=none;rounded=0;orthogonalLoop=1;jettySize=auto;html=1;exitX=0.5;exitY=1;exitDx=0;exitDy=0;entryX=0.5;entryY=0;entryDx=0;entryDy=0;endArrow=none;endFill=0;fontSize=20;strokeColor=#2E282A;dashed=1;strokeWidth=2;fontFamily=Helvetica;" parent="1" source="nY-FzgrsEUIEL5FHPldE-11" target="nY-FzgrsEUIEL5FHPldE-35" edge="1">
          <mxGeometry relative="1" as="geometry" />
        </mxCell>
        <mxCell id="OnMQXUsQuM_lED_xJwlF-48" value="10%" style="rounded=0;orthogonalLoop=1;jettySize=auto;html=1;entryX=0.5;entryY=0;entryDx=0;entryDy=0;endArrow=none;endFill=0;exitX=0.5;exitY=1;exitDx=0;exitDy=0;strokeColor=#777DA7;strokeWidth=2;sketch=0;fontSize=20;fontFamily=Helvetica;" parent="1" source="nY-FzgrsEUIEL5FHPldE-11" target="OnMQXUsQuM_lED_xJwlF-34" edge="1">
          <mxGeometry relative="1" as="geometry">
            <mxPoint x="-230" y="-370" as="sourcePoint" />
            <mxPoint x="249" y="-72.5" as="targetPoint" />
            <Array as="points" />
          </mxGeometry>
        </mxCell>
        <mxCell id="OnMQXUsQuM_lED_xJwlF-49" value="10%&amp;nbsp;" style="edgeStyle=none;rounded=0;orthogonalLoop=1;jettySize=auto;html=1;exitX=0.5;exitY=1;exitDx=0;exitDy=0;entryX=0.5;entryY=0;entryDx=0;entryDy=0;endArrow=none;endFill=0;fontSize=20;strokeColor=#777DA7;strokeWidth=2;sketch=0;fontFamily=Helvetica;" parent="1" source="nY-FzgrsEUIEL5FHPldE-11" target="OnMQXUsQuM_lED_xJwlF-37" edge="1">
          <mxGeometry relative="1" as="geometry">
            <mxPoint x="-232" y="-370" as="sourcePoint" />
            <mxPoint x="66" y="-72.5" as="targetPoint" />
            <Array as="points" />
          </mxGeometry>
        </mxCell>
        <mxCell id="OnMQXUsQuM_lED_xJwlF-54" value="灰度集群" style="text;html=1;align=center;verticalAlign=middle;resizable=0;points=[];autosize=1;fontSize=20;fontStyle=1;fontColor=#2E282A;fontFamily=Helvetica;" parent="1" vertex="1">
          <mxGeometry x="110" y="178" width="100" height="40" as="geometry" />
        </mxCell>
        <mxCell id="OnMQXUsQuM_lED_xJwlF-62" value="向上兼容" style="edgeStyle=orthogonalEdgeStyle;rounded=0;orthogonalLoop=1;jettySize=auto;html=1;fontSize=12;fontColor=#000000;strokeColor=#000000;strokeWidth=1;fontFamily=Helvetica;" parent="1" source="OnMQXUsQuM_lED_xJwlF-55" target="nY-FzgrsEUIEL5FHPldE-52" edge="1">
          <mxGeometry relative="1" as="geometry" />
        </mxCell>
        <mxCell id="OnMQXUsQuM_lED_xJwlF-55" value="Micro Service" style="rounded=1;whiteSpace=wrap;html=1;comic=0;fillColor=#777DA7;fontSize=16;strokeColor=none;fontColor=#fffffb;fillStyle=auto;fontFamily=Helvetica;" parent="1" vertex="1">
          <mxGeometry x="150" y="243" width="160" height="60" as="geometry" />
        </mxCell>
        <mxCell id="OnMQXUsQuM_lED_xJwlF-57" value="Micro Service" style="rounded=1;whiteSpace=wrap;html=1;comic=0;fillColor=#777DA7;fontSize=16;strokeColor=none;fontColor=#fffffb;fillStyle=auto;fontFamily=Helvetica;" parent="1" vertex="1">
          <mxGeometry x="149" y="352" width="160" height="60" as="geometry" />
        </mxCell>
        <mxCell id="OnMQXUsQuM_lED_xJwlF-58" value="Micro Service" style="rounded=1;whiteSpace=wrap;html=1;comic=0;fillColor=#777DA7;fontSize=16;strokeColor=none;fontColor=#fffffb;fillStyle=auto;fontFamily=Helvetica;" parent="1" vertex="1">
          <mxGeometry x="370" y="243" width="160" height="60" as="geometry" />
        </mxCell>
        <mxCell id="OnMQXUsQuM_lED_xJwlF-60" value="Micro Service" style="rounded=1;whiteSpace=wrap;html=1;comic=0;fillColor=#777DA7;fontSize=16;strokeColor=none;fontColor=#fffffb;fillStyle=auto;fontFamily=Helvetica;" parent="1" vertex="1">
          <mxGeometry x="369" y="352" width="160" height="60" as="geometry" />
        </mxCell>
        <mxCell id="w3q-HAxAk2p2rQf9QFaI-1" value="管理系统" style="rounded=0;whiteSpace=wrap;html=1;fontSize=18;strokeColor=#31393c;fontFamily=Helvetica;" parent="1" vertex="1">
          <mxGeometry y="-427.5" width="120" height="60" as="geometry" />
        </mxCell>
        <mxCell id="w3q-HAxAk2p2rQf9QFaI-2" value="系统" style="rounded=0;whiteSpace=wrap;html=1;fontSize=18;strokeColor=#31393c;fontFamily=Helvetica;" parent="1" vertex="1">
          <mxGeometry x="275" y="-427.5" width="120" height="60" as="geometry" />
        </mxCell>
        <mxCell id="w3q-HAxAk2p2rQf9QFaI-4" value="100%" style="rounded=0;orthogonalLoop=1;jettySize=auto;html=1;entryX=0.5;entryY=0;entryDx=0;entryDy=0;endArrow=none;endFill=0;exitX=0.5;exitY=1;exitDx=0;exitDy=0;strokeColor=#2E282A;strokeWidth=2;fontSize=20;fontFamily=Helvetica;" parent="1" target="nY-FzgrsEUIEL5FHPldE-23" edge="1">
          <mxGeometry relative="1" as="geometry">
            <mxPoint x="-232" y="-367.5" as="sourcePoint" />
            <mxPoint x="-198" y="-72.5" as="targetPoint" />
            <Array as="points" />
          </mxGeometry>
        </mxCell>
        <mxCell id="UNmhw7URokJWCJeyuWq6-1" value="App 1.0.1" style="rounded=0;whiteSpace=wrap;html=1;verticalAlign=middle;strokeColor=#777DA7;fontSize=14;fontFamily=Helvetica;" parent="1" vertex="1">
          <mxGeometry x="440" y="53" width="84" height="60" as="geometry" />
        </mxCell>
        <mxCell id="JIFR-orrSNVKGbnrF8LJ-1" value="" style="editableCssRules=.*;shape=image;verticalLabelPosition=bottom;labelBackgroundColor=#ffffff;verticalAlign=top;aspect=fixed;imageAspect=0;image=data:image/svg+xml,PHN2ZyB4bWxucz0iaHR0cDovL3d3dy53My5vcmcvMjAwMC9zdmciIHhtbG5zOnY9Imh0dHBzOi8vdmVjdGEuaW8vbmFubyIgd2lkdGg9IjE2MCIgaGVpZ2h0PSIyNDAiIHZpZXdCb3g9IjAgMCAxNjAgMjQwIj4mI3hhOwk8c3R5bGUgdHlwZT0idGV4dC9jc3MiPiYjeGE7CS5zdDB7ZmlsbDojNDY2YmIwO30mI3hhOwk8L3N0eWxlPiYjeGE7CTxwYXRoIGNsYXNzPSJzdDAiIGQ9Ik02MCAyNDBMMCAyMTBoMTYwem0wLTE2MEwwIDIwMGw2MC0xMHpNNzAgMHYxOTBsOTAgMTB6Ii8+JiN4YTs8L3N2Zz4=;fontColor=default;fontSize=16;strokeWidth=1;fontFamily=Helvetica;" parent="1" vertex="1">
          <mxGeometry x="-98.95" y="-258" width="29.9" height="46" as="geometry" />
        </mxCell>
      </root>
    </mxGraphModel>
  </diagram>
  <diagram id="Kpu_Y27PJDLS4-0dMVB_" name="结构">
    <mxGraphModel dx="1430" dy="1891" grid="1" gridSize="10" guides="1" tooltips="1" connect="1" arrows="1" fold="1" page="1" pageScale="1" pageWidth="827" pageHeight="1169" math="0" shadow="0">
      <root>
        <mxCell id="0" />
        <mxCell id="1" parent="0" />
        <mxCell id="SMGPg7xAIMb0gJ5xO_DG-1" value="中心端" style="sketch=0;outlineConnect=0;fontColor=#232F3E;gradientColor=none;strokeColor=#232F3E;fillColor=#ffffff;dashed=0;verticalLabelPosition=bottom;verticalAlign=top;align=center;html=1;fontSize=16;fontStyle=0;aspect=fixed;shape=mxgraph.aws4.resourceIcon;resIcon=mxgraph.aws4.cluster;fontFamily=微软雅黑;" vertex="1" parent="1">
          <mxGeometry x="354" y="32" width="60" height="60" as="geometry" />
        </mxCell>
        <mxCell id="SMGPg7xAIMb0gJ5xO_DG-2" value="节点" style="sketch=0;outlineConnect=0;fontColor=#232F3E;gradientColor=none;fillColor=#4D27AA;strokeColor=none;dashed=0;verticalLabelPosition=bottom;verticalAlign=top;align=center;html=1;fontSize=16;fontStyle=0;aspect=fixed;pointerEvents=1;shape=mxgraph.aws4.cloud_wan_virtual_pop;fontFamily=微软雅黑;" vertex="1" parent="1">
          <mxGeometry x="180" y="120" width="78" height="78" as="geometry" />
        </mxCell>
        <mxCell id="SMGPg7xAIMb0gJ5xO_DG-3" value="大数据" style="sketch=0;outlineConnect=0;fontColor=#232F3E;gradientColor=none;strokeColor=#232F3E;fillColor=#ffffff;dashed=0;verticalLabelPosition=bottom;verticalAlign=top;align=center;html=1;fontSize=16;fontStyle=0;aspect=fixed;shape=mxgraph.aws4.resourceIcon;resIcon=mxgraph.aws4.cluster;fontFamily=微软雅黑;" vertex="1" parent="1">
          <mxGeometry x="354" y="152" width="60" height="60" as="geometry" />
        </mxCell>
        <mxCell id="SMGPg7xAIMb0gJ5xO_DG-7" value="" style="shape=image;verticalLabelPosition=bottom;labelBackgroundColor=default;verticalAlign=top;aspect=fixed;imageAspect=0;image=https://cncf-branding.netlify.app/img/projects/kubernetes/stacked/color/kubernetes-stacked-color.svg;fontFamily=微软雅黑;fontSize=16;" vertex="1" parent="1">
          <mxGeometry x="520" y="120" width="128" height="100" as="geometry" />
        </mxCell>
        <mxCell id="SMGPg7xAIMb0gJ5xO_DG-8" value="" style="shape=image;verticalLabelPosition=bottom;labelBackgroundColor=default;verticalAlign=top;aspect=fixed;imageAspect=0;image=https://cncf-branding.netlify.app/img/projects/helm/icon/color/helm-icon-color.svg;fontFamily=微软雅黑;fontSize=16;" vertex="1" parent="1">
          <mxGeometry x="530" y="-100" width="100" height="100" as="geometry" />
        </mxCell>
        <mxCell id="SMGPg7xAIMb0gJ5xO_DG-9" value="" style="shape=image;verticalLabelPosition=bottom;labelBackgroundColor=default;verticalAlign=top;aspect=fixed;imageAspect=0;image=https://cncf-branding.netlify.app/img/projects/harbor/stacked/color/harbor-stacked-color.svg;fontFamily=微软雅黑;fontSize=16;" vertex="1" parent="1">
          <mxGeometry x="230" y="-102" width="82.96" height="102" as="geometry" />
        </mxCell>
        <mxCell id="SMGPg7xAIMb0gJ5xO_DG-10" value="pod" style="sketch=0;html=1;dashed=0;whitespace=wrap;fillColor=#2875E2;strokeColor=#ffffff;points=[[0.005,0.63,0],[0.1,0.2,0],[0.9,0.2,0],[0.5,0,0],[0.995,0.63,0],[0.72,0.99,0],[0.5,1,0],[0.28,0.99,0]];verticalLabelPosition=bottom;align=center;verticalAlign=top;shape=mxgraph.kubernetes.icon;prIcon=pod;fontFamily=微软雅黑;fontSize=16;" vertex="1" parent="1">
          <mxGeometry x="913.78" y="180" width="50" height="48" as="geometry" />
        </mxCell>
        <mxCell id="SMGPg7xAIMb0gJ5xO_DG-12" value="" style="image;sketch=0;aspect=fixed;html=1;points=[];align=center;fontSize=16;image=img/lib/mscae/Docker.svg;fontFamily=微软雅黑;" vertex="1" parent="1">
          <mxGeometry x="890" y="-80" width="97.56" height="80" as="geometry" />
        </mxCell>
        <mxCell id="SMGPg7xAIMb0gJ5xO_DG-13" value="ingress" style="sketch=0;html=1;dashed=0;whitespace=wrap;fillColor=#2875E2;strokeColor=#ffffff;points=[[0.005,0.63,0],[0.1,0.2,0],[0.9,0.2,0],[0.5,0,0],[0.995,0.63,0],[0.72,0.99,0],[0.5,1,0],[0.28,0.99,0]];verticalLabelPosition=bottom;align=center;verticalAlign=top;shape=mxgraph.kubernetes.icon;prIcon=ing;fontFamily=微软雅黑;fontSize=16;" vertex="1" parent="1">
          <mxGeometry x="1080" y="32" width="50" height="48" as="geometry" />
        </mxCell>
        <mxCell id="SMGPg7xAIMb0gJ5xO_DG-14" value="service" style="sketch=0;html=1;dashed=0;whitespace=wrap;fillColor=#2875E2;strokeColor=#ffffff;points=[[0.005,0.63,0],[0.1,0.2,0],[0.9,0.2,0],[0.5,0,0],[0.995,0.63,0],[0.72,0.99,0],[0.5,1,0],[0.28,0.99,0]];verticalLabelPosition=bottom;align=center;verticalAlign=top;shape=mxgraph.kubernetes.icon;prIcon=svc;fontFamily=微软雅黑;fontSize=16;" vertex="1" parent="1">
          <mxGeometry x="1080" y="198" width="50" height="48" as="geometry" />
        </mxCell>
        <mxCell id="SMGPg7xAIMb0gJ5xO_DG-15" value="configmap" style="sketch=0;html=1;dashed=0;whitespace=wrap;fillColor=#2875E2;strokeColor=#ffffff;points=[[0.005,0.63,0],[0.1,0.2,0],[0.9,0.2,0],[0.5,0,0],[0.995,0.63,0],[0.72,0.99,0],[0.5,1,0],[0.28,0.99,0]];verticalLabelPosition=bottom;align=center;verticalAlign=top;shape=mxgraph.kubernetes.icon;prIcon=cm;fontFamily=微软雅黑;fontSize=16;" vertex="1" parent="1">
          <mxGeometry x="1080" y="282" width="50" height="48" as="geometry" />
        </mxCell>
        <mxCell id="SMGPg7xAIMb0gJ5xO_DG-16" value="容器" style="image;aspect=fixed;html=1;points=[];align=center;fontSize=16;image=img/lib/azure2/compute/Container_Instances.svg;fontFamily=微软雅黑;" vertex="1" parent="1">
          <mxGeometry x="906.78" y="60" width="64" height="68" as="geometry" />
        </mxCell>
        <mxCell id="cbKWWl9TpLQg0472zFM4-1" value="POP" style="sketch=0;outlineConnect=0;fontColor=#232F3E;gradientColor=none;strokeColor=#232F3E;fillColor=#ffffff;dashed=0;verticalLabelPosition=bottom;verticalAlign=top;align=center;html=1;fontSize=16;fontStyle=0;aspect=fixed;shape=mxgraph.aws4.resourceIcon;resIcon=mxgraph.aws4.cluster;fontFamily=微软雅黑;" vertex="1" parent="1">
          <mxGeometry x="354" y="272" width="60" height="60" as="geometry" />
        </mxCell>
        <mxCell id="cbKWWl9TpLQg0472zFM4-2" value="worker" style="sketch=0;html=1;dashed=0;whitespace=wrap;fillColor=#2875E2;strokeColor=#ffffff;points=[[0.005,0.63,0],[0.1,0.2,0],[0.9,0.2,0],[0.5,0,0],[0.995,0.63,0],[0.72,0.99,0],[0.5,1,0],[0.28,0.99,0]];verticalLabelPosition=bottom;align=center;verticalAlign=top;shape=mxgraph.kubernetes.icon;prIcon=node;fontSize=16;fontFamily=微软雅黑;" vertex="1" parent="1">
          <mxGeometry x="750" y="180" width="50" height="48" as="geometry" />
        </mxCell>
        <mxCell id="cbKWWl9TpLQg0472zFM4-3" value="master" style="sketch=0;html=1;dashed=0;whitespace=wrap;fillColor=#2875E2;strokeColor=#ffffff;points=[[0.005,0.63,0],[0.1,0.2,0],[0.9,0.2,0],[0.5,0,0],[0.995,0.63,0],[0.72,0.99,0],[0.5,1,0],[0.28,0.99,0]];verticalLabelPosition=bottom;align=center;verticalAlign=top;shape=mxgraph.kubernetes.icon;prIcon=master;fontSize=16;fontFamily=微软雅黑;" vertex="1" parent="1">
          <mxGeometry x="750" y="80" width="50" height="48" as="geometry" />
        </mxCell>
        <mxCell id="cbKWWl9TpLQg0472zFM4-4" value="deployment" style="sketch=0;html=1;dashed=0;whitespace=wrap;fillColor=#2875E2;strokeColor=#ffffff;points=[[0.005,0.63,0],[0.1,0.2,0],[0.9,0.2,0],[0.5,0,0],[0.995,0.63,0],[0.72,0.99,0],[0.5,1,0],[0.28,0.99,0]];verticalLabelPosition=bottom;align=center;verticalAlign=top;shape=mxgraph.kubernetes.icon;prIcon=deploy;fontSize=16;fontFamily=微软雅黑;" vertex="1" parent="1">
          <mxGeometry x="1080" y="115" width="50" height="48" as="geometry" />
        </mxCell>
        <mxCell id="cbKWWl9TpLQg0472zFM4-6" value="" style="shape=image;verticalLabelPosition=bottom;labelBackgroundColor=default;verticalAlign=top;aspect=fixed;imageAspect=0;image=https://nacos.io/img/nacos_colorful.png;" vertex="1" parent="1">
          <mxGeometry x="1200" y="-60" width="206" height="40" as="geometry" />
        </mxCell>
        <mxCell id="cbKWWl9TpLQg0472zFM4-7" value="Istio" style="sketch=0;html=1;verticalAlign=top;labelPosition=center;verticalLabelPosition=bottom;align=center;spacingTop=-6;fontSize=16;fontStyle=1;fontColor=#999999;shape=image;aspect=fixed;imageAspect=0;image=data:image/svg+xml,PHN2ZyB4bWxucz0iaHR0cDovL3d3dy53My5vcmcvMjAwMC9zdmciIHhtbG5zOnY9Imh0dHBzOi8vdmVjdGEuaW8vbmFubyIgd2lkdGg9IjE2MCIgaGVpZ2h0PSIyNDAiIHZpZXdCb3g9IjAgMCAxNjAgMjQwIj4mI3hhOwk8c3R5bGUgdHlwZT0idGV4dC9jc3MiPiYjeGE7CS5zdDB7ZmlsbDojNDY2YmIwO30mI3hhOwk8L3N0eWxlPiYjeGE7CTxwYXRoIGNsYXNzPSJzdDAiIGQ9Ik02MCAyNDBMMCAyMTBoMTYwem0wLTE2MEwwIDIwMGw2MC0xMHpNNzAgMHYxOTBsOTAgMTB6Ii8+JiN4YTs8L3N2Zz4=;fontFamily=微软雅黑;" vertex="1" parent="1">
          <mxGeometry x="1500" y="-81" width="38.57" height="60" as="geometry" />
        </mxCell>
        <mxCell id="3yTfQF-kfmf7klrGJj9i-1" value="" style="shape=image;verticalLabelPosition=bottom;labelBackgroundColor=default;verticalAlign=top;aspect=fixed;imageAspect=0;image=https://cncf-branding.netlify.app/img/projects/jaeger/stacked/color/jaeger-stacked-color.svg;" vertex="1" parent="1">
          <mxGeometry x="1252.31" y="26" width="101.38" height="137" as="geometry" />
        </mxCell>
      </root>
    </mxGraphModel>
  </diagram>
</mxfile>
